 <svg id="RSQzcsyA" role="img" lang="en" fill="none" xmlns="http://www.w3.org/2000/svg" preserveAspectRatio="xMinYMin slice" viewBox="0 0 1146.06 179.64" > <title>The Equivalent Company Logo</title> <style> #RSQzcsyA { color-scheme: light dark; width: 100%; background-color: transparent; --JumEzyPD: hsl(210 100% 40%);--yKTsJmMr: hsl(0 0% 9.01961%); } @media (prefers-color-scheme: light) { #RSQzcsyA { --JumEzyPD: hsl(30 100% 60%);--yKTsJmMr: hsl(0 0% 90.9804%); } } #RSQzcsyA_desktop-group { display: initial; } #RSQzcsyA_mobile-group { display: none; } @supports (aspect-ratio: auto) { @media (max-width: 480px) { #RSQzcsyA_desktop-group { display: none; } #RSQzcsyA_mobile-group { display: initial; transform: scale(1.0802814360454627); } #RSQzcsyA { aspect-ratio: 0.7499548980696373; } } } .equid_5551_cls-1 { fill: var(--JumEzyPD); } .equid_5551_cls-2 { fill: var(--yKTsJmMr); } .equid_3930_cls-1 { fill: var(--JumEzyPD); } .equid_3930_cls-2 { fill: var(--yKTsJmMr); } @media (forced-colors: active) { #RSQzcsyA_masked-paths { filter: saturate(0); } #RSQzcsyA_CTO { display: initial; } } @media (forced-colors: active) and (prefers-color-scheme: dark) { #RSQzcsyA_masked-paths { filter: invert(1); } } </style> <defs> <mask id="RSQzcsyA_CTO-mask"> <use id="RSQzcsyA_mask-ref" href="#RSQzcsyA_masked-paths" x="0" y="0" /> </mask> </defs> <g id="RSQzcsyA_masked-paths"> <g id="RSQzcsyA_desktop-group"> <g id="equid_5551_Layer_1-2" data-name="Layer 1" ><polygon class="equid_5551_cls-1" points="59.29 13.33 59.29 47.02 0 47.02 0 82.04 124.71 82.04 59.29 13.33"/><polygon class="equid_5551_cls-2" points="65.42 179.62 65.42 145.93 124.71 145.93 124.71 110.84 0 110.84 65.42 179.62"/><path class="equid_5551_cls-2" d="M352.74 47.13v11.38c-7.16-8.63-17.63-12.85-30.86-12.85-27.92 0-49.41 19.83-49.41 50.87s21.49 50.88 49.41 50.88c12.12 0 22.41-3.86 29.57-11.94v44.16h28.65V47.13zm-25.9 76.77c-14.33 0-25.35-10.29-25.35-27.37s11.02-27.36 25.35-27.36S352 79.46 352 96.53s-11.02 27.37-25.16 27.37m169.62-76.77v98.81h-27.18v-11.75c-7.53 8.63-18.55 13.22-30.67 13.22-24.8 0-42.24-13.96-42.24-44.45V47.12h28.65v51.61c0 16.53 7.35 23.88 20.02 23.88s22.77-8.45 22.77-26.63V47.13z"/><polygon class="equid_5551_cls-2" points="669.83 47.13 628.14 145.95 598.57 145.95 557.06 47.13 586.63 47.13 614 114.35 642.28 47.13 669.83 47.13"/><rect class="equid_5551_cls-2" x="790.6" width="28.65" height="145.95"/><path class="equid_5551_cls-2" d="M258.31 96.91c0-31.78-22.41-51.24-51.43-51.24s-52.71 21.3-52.71 50.87 22.22 50.88 56.38 50.88c17.82 0 31.59-5.51 40.78-15.98l-15.54-16.26c-6.8 6.43-14.03 9.28-24.49 9.28-15.06 0-25.53-7.53-28.28-19.84h74.75c.19-2.39.55-5.51.55-7.71Zm-75.67-9c2.02-12.67 11.39-20.57 24.43-20.57s22.22 8.08 24.24 20.57zm873.29 1.47v56.57h-28.65V93.78c0-15.98-7.35-23.32-20.02-23.32-13.78 0-23.69 8.45-23.69 26.63v48.86h-28.65V47.13h27.37V58.7c7.71-8.45 19.28-13.04 32.69-13.04 23.33 0 40.96 13.59 40.96 43.71Z"/><rect class="equid_5551_cls-2" x="514.52" width="28.65" height="28.65"/><rect class="equid_5551_cls-2" x="514.53" y="46.84" width="28.65" height="98.81"/><path class="equid_5551_cls-2" d="M1130.15 124.29c-1.24.23-2.5.36-3.77.36-7.71 0-12.3-4.59-12.3-13.04V69h24.61V46.96h-24.61V25.28h-28.65v21.68h-15.24V69h15.24v42.98c0 23.51 13.59 35.45 36.92 35.45 8.79 0 17.84-2.26 23.72-6.46l-15.91-16.67ZM722.73 45.75c-15.8 0-31.77 4.22-42.61 11.94l15.73 16.44c6.79-3.83 14.62-5.61 23.03-5.61 15.43 0 22.78 7.16 22.78 19.47h-22.78c-30.12 0-42.42 12.12-42.42 29.57s13.77 29.94 36.92 29.94c14.51 0 24.8-4.77 30.12-13.77v12.3h26.82V89.64c0-29.94-17.45-43.9-47.57-43.9Zm18.92 69.06c-3.31 9-11.57 13.41-21.12 13.41-10.1 0-16.16-4.77-16.16-11.94 0-6.61 4.22-11.57 17.63-11.57h19.65zm198-17.9c0-31.78-22.41-51.24-51.43-51.24s-52.71 21.3-52.71 50.87 22.22 50.88 56.38 50.88c17.82 0 31.59-5.51 40.78-15.98l-15.54-16.26c-6.8 6.43-14.03 9.28-24.49 9.28-15.06 0-25.53-7.53-28.28-19.84h74.75c.19-2.39.55-5.51.55-7.71Zm-75.67-9c2.02-12.67 11.39-20.57 24.43-20.57s22.22 8.08 24.24 20.57z"/></g> </g> <g id="RSQzcsyA_mobile-group"> <g id="equid_3930_Layer_1-2" data-name="Layer 1" ><polygon class="equid_3930_cls-1" points="59.29 0 59.29 33.69 0 33.69 0 68.7 124.71 68.7 59.29 0"/><polygon class="equid_3930_cls-2" points="65.42 166.29 65.42 132.6 124.71 132.6 124.71 97.5 0 97.5 65.42 166.29"/></g> </g> </g> <g id="RSQzcsyA_CTO" display="none" role="none" > <rect id="RSQzcsyA_CTO-BG" x="0" y="0" width="100%" height="100%" fill="Canvas" /> <rect id="RSQzcsyA_CTO-FG" x="0" y="0" width="100%" height="100%" fill="canvasText" mask="url(#RSQzcsyA_CTO-mask)" /> </g> </svg>
