<?xml version="1.0" encoding="UTF-8" standalone="no"?>
<svg
 xmlns="http://www.w3.org/2000/svg"
 xmlns:xlink="http://www.w3.org/1999/xlink"
 width="336"
 height="279" viewbox="0 0 336 279">
<path
 id="O"
 style="fill:#000;stroke:none"
 d="m 206.83506,111.74824 q 6.60326,0 11.04544,4.65829 4.58626,4.80237 4.58626,12.48615 0,7.63576 -4.58626,12.46213 -4.44218,4.65829 -11.23753,4.65829 -6.81936,0 -11.26154,-4.65829 -4.58626,-4.85039 -4.58626,-12.41411 0,-7.77983 4.58626,-12.53417 4.49021,-4.65829 11.45363,-4.65829 z m -0.36017,4.10602 q -4.73033,0 -7.82786,3.57776 -3.09752,3.57776 -3.09752,9.46066 0,5.83487 3.09752,9.41263 3.09753,3.60177 7.99594,3.60177 4.89841,0 7.97192,-3.60177 3.09753,-3.57776 3.09753,-9.38862 0,-5.8829 -3.09753,-9.48467 -3.07351,-3.57776 -8.14,-3.57776 z" />
<path
 id="H"
 style="fill:#000;stroke:none"
 d="m 186.11201,21.1535 h -16.44809 v 15.0314 h -4.68231 V 3.40877 h 4.68231 v 13.63871 h 16.44809 V 3.40877 h 4.68231 V 36.1849 h -4.68231 z" />
<use
 x="0"
 y="0"
 xlink:href="#O"
 transform="translate(-189.50777,-109.17647)"
 width="100%"
 height="100%" />
<use
 x="0"
 y="0"
 xlink:href="#O"
 transform="translate(-62.69432,-109.08384)"
 width="100%"
 height="100%" />
<path
 d="m 265.4413,219.64804 -0.17721,-56.70894 m 8.94523,56.77359 -0.23895,-56.81186 m -51.15966,-24.73346 46.81492,27.02862 63.36092,-36.58145 M 35.585724,25.279018 84.785721,53.480019 m -53.639994,-20.64 49.319994,28.199002 m 0.360001,78.119989 53.880008,30.96001 m 0,63 -53.880008,31.08002 M 26.345726,232.76001 v -62.28 m 54.304701,-41.18834 63.062043,36.27115 M 127.46536,29.10018 80.650427,56.128778 v 73.162892 l -63.062041,36.27115 v 72.54229 l 63.062039,36.27115 63.062045,-36.27115 v -72.54229 l 46.89508,-27.07488"
 style="fill:none;stroke:#000;stroke-width:3.12" />
<use
 x="0"
 y="0"
 xlink:href="#O"
 transform="translate(63.105737,109.78503)"
 width="100%"
 height="100%" />
</svg>
